<?xml version="1.0" encoding="UTF-8" ?>
<svg version="1.1" width="192" height="96" xmlns="http://www.w3.org/2000/svg" shape-rendering="crispEdges">
<rect x="51" y="41" width="1" height="1" fill="#900000" />
<rect x="52" y="41" width="1" height="1" fill="#900000" />
<rect x="53" y="41" width="1" height="1" fill="#900000" />
<rect x="54" y="41" width="1" height="1" fill="#900000" />
<rect x="55" y="41" width="1" height="1" fill="#900000" />
<rect x="56" y="41" width="1" height="1" fill="#900000" />
<rect x="59" y="41" width="1" height="1" fill="#900000" />
<rect x="60" y="41" width="1" height="1" fill="#900000" />
<rect x="61" y="41" width="1" height="1" fill="#900000" />
<rect x="62" y="41" width="1" height="1" fill="#900000" />
<rect x="63" y="41" width="1" height="1" fill="#900000" />
<rect x="64" y="41" width="1" height="1" fill="#900000" />
<rect x="65" y="41" width="1" height="1" fill="#900000" />
<rect x="66" y="41" width="1" height="1" fill="#900000" />
<rect x="67" y="41" width="1" height="1" fill="#900000" />
<rect x="68" y="41" width="1" height="1" fill="#900000" />
<rect x="69" y="41" width="1" height="1" fill="#900000" />
<rect x="70" y="41" width="1" height="1" fill="#900000" />
<rect x="79" y="41" width="1" height="1" fill="#900000" />
<rect x="80" y="41" width="1" height="1" fill="#900000" />
<rect x="88" y="41" width="1" height="1" fill="#900000" />
<rect x="89" y="41" width="1" height="1" fill="#900000" />
<rect x="90" y="41" width="1" height="1" fill="#900000" />
<rect x="91" y="41" width="1" height="1" fill="#900000" />
<rect x="92" y="41" width="1" height="1" fill="#900000" />
<rect x="93" y="41" width="1" height="1" fill="#900000" />
<rect x="102" y="41" width="1" height="1" fill="#900000" />
<rect x="103" y="41" width="1" height="1" fill="#900000" />
<rect x="104" y="41" width="1" height="1" fill="#900000" />
<rect x="105" y="41" width="1" height="1" fill="#900000" />
<rect x="106" y="41" width="1" height="1" fill="#900000" />
<rect x="107" y="41" width="1" height="1" fill="#900000" />
<rect x="115" y="41" width="1" height="1" fill="#900000" />
<rect x="116" y="41" width="1" height="1" fill="#900000" />
<rect x="125" y="41" width="1" height="1" fill="#900000" />
<rect x="126" y="41" width="1" height="1" fill="#900000" />
<rect x="127" y="41" width="1" height="1" fill="#900000" />
<rect x="128" y="41" width="1" height="1" fill="#900000" />
<rect x="129" y="41" width="1" height="1" fill="#900000" />
<rect x="130" y="41" width="1" height="1" fill="#900000" />
<rect x="134" y="41" width="1" height="1" fill="#900000" />
<rect x="135" y="41" width="1" height="1" fill="#900000" />
<rect x="136" y="41" width="1" height="1" fill="#900000" />
<rect x="137" y="41" width="1" height="1" fill="#900000" />
<rect x="138" y="41" width="1" height="1" fill="#900000" />
<rect x="139" y="41" width="1" height="1" fill="#900000" />
<rect x="51" y="42" width="1" height="1" fill="#600000" />
<rect x="52" y="42" width="1" height="1" fill="#600000" />
<rect x="53" y="42" width="1" height="1" fill="#600000" />
<rect x="54" y="42" width="1" height="1" fill="#600000" />
<rect x="55" y="42" width="1" height="1" fill="#600000" />
<rect x="56" y="42" width="1" height="1" fill="#600000" />
<rect x="59" y="42" width="1" height="1" fill="#600000" />
<rect x="60" y="42" width="1" height="1" fill="#600000" />
<rect x="61" y="42" width="1" height="1" fill="#600000" />
<rect x="62" y="42" width="1" height="1" fill="#600000" />
<rect x="63" y="42" width="1" height="1" fill="#600000" />
<rect x="64" y="42" width="1" height="1" fill="#600000" />
<rect x="65" y="42" width="1" height="1" fill="#600000" />
<rect x="66" y="42" width="1" height="1" fill="#600000" />
<rect x="67" y="42" width="1" height="1" fill="#600000" />
<rect x="68" y="42" width="1" height="1" fill="#600000" />
<rect x="69" y="42" width="1" height="1" fill="#600000" />
<rect x="70" y="42" width="1" height="1" fill="#600000" />
<rect x="79" y="42" width="1" height="1" fill="#600000" />
<rect x="80" y="42" width="1" height="1" fill="#600000" />
<rect x="88" y="42" width="1" height="1" fill="#600000" />
<rect x="89" y="42" width="1" height="1" fill="#600000" />
<rect x="90" y="42" width="1" height="1" fill="#600000" />
<rect x="91" y="42" width="1" height="1" fill="#600000" />
<rect x="92" y="42" width="1" height="1" fill="#600000" />
<rect x="93" y="42" width="1" height="1" fill="#600000" />
<rect x="102" y="42" width="1" height="1" fill="#600000" />
<rect x="103" y="42" width="1" height="1" fill="#600000" />
<rect x="104" y="42" width="1" height="1" fill="#600000" />
<rect x="105" y="42" width="1" height="1" fill="#600000" />
<rect x="106" y="42" width="1" height="1" fill="#600000" />
<rect x="107" y="42" width="1" height="1" fill="#600000" />
<rect x="115" y="42" width="1" height="1" fill="#600000" />
<rect x="116" y="42" width="1" height="1" fill="#600000" />
<rect x="125" y="42" width="1" height="1" fill="#600000" />
<rect x="126" y="42" width="1" height="1" fill="#600000" />
<rect x="127" y="42" width="1" height="1" fill="#600000" />
<rect x="128" y="42" width="1" height="1" fill="#600000" />
<rect x="129" y="42" width="1" height="1" fill="#600000" />
<rect x="130" y="42" width="1" height="1" fill="#600000" />
<rect x="134" y="42" width="1" height="1" fill="#600000" />
<rect x="135" y="42" width="1" height="1" fill="#600000" />
<rect x="136" y="42" width="1" height="1" fill="#600000" />
<rect x="137" y="42" width="1" height="1" fill="#600000" />
<rect x="138" y="42" width="1" height="1" fill="#600000" />
<rect x="139" y="42" width="1" height="1" fill="#600000" />
<rect x="51" y="43" width="1" height="1" fill="#600000" />
<rect x="52" y="43" width="1" height="1" fill="#600000" />
<rect x="53" y="43" width="1" height="1" fill="#600000" />
<rect x="54" y="43" width="1" height="1" fill="#600000" />
<rect x="55" y="43" width="1" height="1" fill="#600000" />
<rect x="56" y="43" width="1" height="1" fill="#600000" />
<rect x="59" y="43" width="1" height="1" fill="#600000" />
<rect x="60" y="43" width="1" height="1" fill="#600000" />
<rect x="63" y="43" width="1" height="1" fill="#600000" />
<rect x="64" y="43" width="1" height="1" fill="#600000" />
<rect x="65" y="43" width="1" height="1" fill="#600000" />
<rect x="66" y="43" width="1" height="1" fill="#600000" />
<rect x="69" y="43" width="1" height="1" fill="#600000" />
<rect x="70" y="43" width="1" height="1" fill="#600000" />
<rect x="71" y="43" width="1" height="1" fill="#900000" />
<rect x="78" y="43" width="1" height="1" fill="#900000" />
<rect x="79" y="43" width="1" height="1" fill="#600000" />
<rect x="80" y="43" width="1" height="1" fill="#600000" />
<rect x="81" y="43" width="1" height="1" fill="#900000" />
<rect x="88" y="43" width="1" height="1" fill="#600000" />
<rect x="89" y="43" width="1" height="1" fill="#600000" />
<rect x="90" y="43" width="1" height="1" fill="#600000" />
<rect x="91" y="43" width="1" height="1" fill="#600000" />
<rect x="92" y="43" width="1" height="1" fill="#600000" />
<rect x="93" y="43" width="1" height="1" fill="#600000" />
<rect x="102" y="43" width="1" height="1" fill="#600000" />
<rect x="103" y="43" width="1" height="1" fill="#600000" />
<rect x="104" y="43" width="1" height="1" fill="#600000" />
<rect x="105" y="43" width="1" height="1" fill="#600000" />
<rect x="106" y="43" width="1" height="1" fill="#600000" />
<rect x="107" y="43" width="1" height="1" fill="#600000" />
<rect x="114" y="43" width="1" height="1" fill="#900000" />
<rect x="115" y="43" width="1" height="1" fill="#600000" />
<rect x="116" y="43" width="1" height="1" fill="#600000" />
<rect x="117" y="43" width="1" height="1" fill="#900000" />
<rect x="125" y="43" width="1" height="1" fill="#600000" />
<rect x="126" y="43" width="1" height="1" fill="#600000" />
<rect x="127" y="43" width="1" height="1" fill="#600000" />
<rect x="128" y="43" width="1" height="1" fill="#600000" />
<rect x="129" y="43" width="1" height="1" fill="#600000" />
<rect x="130" y="43" width="1" height="1" fill="#900000" />
<rect x="134" y="43" width="1" height="1" fill="#600000" />
<rect x="135" y="43" width="1" height="1" fill="#600000" />
<rect x="136" y="43" width="1" height="1" fill="#600000" />
<rect x="137" y="43" width="1" height="1" fill="#600000" />
<rect x="138" y="43" width="1" height="1" fill="#600000" />
<rect x="139" y="43" width="1" height="1" fill="#600000" />
<rect x="52" y="44" width="1" height="1" fill="#600000" />
<rect x="53" y="44" width="1" height="1" fill="#600000" />
<rect x="54" y="44" width="1" height="1" fill="#600000" />
<rect x="55" y="44" width="1" height="1" fill="#600000" />
<rect x="58" y="44" width="1" height="1" fill="#900000" />
<rect x="59" y="44" width="1" height="1" fill="#600000" />
<rect x="60" y="44" width="1" height="1" fill="#600000" />
<rect x="63" y="44" width="1" height="1" fill="#600000" />
<rect x="64" y="44" width="1" height="1" fill="#600000" />
<rect x="65" y="44" width="1" height="1" fill="#600000" />
<rect x="66" y="44" width="1" height="1" fill="#600000" />
<rect x="69" y="44" width="1" height="1" fill="#600000" />
<rect x="70" y="44" width="1" height="1" fill="#600000" />
<rect x="71" y="44" width="1" height="1" fill="#600000" />
<rect x="78" y="44" width="1" height="1" fill="#600000" />
<rect x="79" y="44" width="1" height="1" fill="#600000" />
<rect x="80" y="44" width="1" height="1" fill="#600000" />
<rect x="81" y="44" width="1" height="1" fill="#600000" />
<rect x="89" y="44" width="1" height="1" fill="#600000" />
<rect x="90" y="44" width="1" height="1" fill="#600000" />
<rect x="91" y="44" width="1" height="1" fill="#600000" />
<rect x="92" y="44" width="1" height="1" fill="#600000" />
<rect x="103" y="44" width="1" height="1" fill="#600000" />
<rect x="104" y="44" width="1" height="1" fill="#600000" />
<rect x="105" y="44" width="1" height="1" fill="#600000" />
<rect x="106" y="44" width="1" height="1" fill="#600000" />
<rect x="114" y="44" width="1" height="1" fill="#600000" />
<rect x="115" y="44" width="1" height="1" fill="#600000" />
<rect x="116" y="44" width="1" height="1" fill="#600000" />
<rect x="117" y="44" width="1" height="1" fill="#600000" />
<rect x="127" y="44" width="1" height="1" fill="#600000" />
<rect x="128" y="44" width="1" height="1" fill="#600000" />
<rect x="129" y="44" width="1" height="1" fill="#600000" />
<rect x="130" y="44" width="1" height="1" fill="#600000" />
<rect x="134" y="44" width="1" height="1" fill="#600000" />
<rect x="135" y="44" width="1" height="1" fill="#600000" />
<rect x="136" y="44" width="1" height="1" fill="#600000" />
<rect x="137" y="44" width="1" height="1" fill="#600000" />
<rect x="138" y="44" width="1" height="1" fill="#600000" />
<rect x="52" y="45" width="1" height="1" fill="#600000" />
<rect x="53" y="45" width="1" height="1" fill="#600000" />
<rect x="54" y="45" width="1" height="1" fill="#600000" />
<rect x="55" y="45" width="1" height="1" fill="#600000" />
<rect x="58" y="45" width="1" height="1" fill="#600000" />
<rect x="59" y="45" width="1" height="1" fill="#600000" />
<rect x="63" y="45" width="1" height="1" fill="#600000" />
<rect x="64" y="45" width="1" height="1" fill="#600000" />
<rect x="65" y="45" width="1" height="1" fill="#600000" />
<rect x="66" y="45" width="1" height="1" fill="#600000" />
<rect x="70" y="45" width="1" height="1" fill="#600000" />
<rect x="77" y="45" width="1" height="1" fill="#900000" />
<rect x="78" y="45" width="1" height="1" fill="#600000" />
<rect x="79" y="45" width="1" height="1" fill="#600000" />
<rect x="80" y="45" width="1" height="1" fill="#600000" />
<rect x="81" y="45" width="1" height="1" fill="#600000" />
<rect x="82" y="45" width="1" height="1" fill="#900000" />
<rect x="89" y="45" width="1" height="1" fill="#600000" />
<rect x="90" y="45" width="1" height="1" fill="#600000" />
<rect x="91" y="45" width="1" height="1" fill="#600000" />
<rect x="92" y="45" width="1" height="1" fill="#600000" />
<rect x="103" y="45" width="1" height="1" fill="#600000" />
<rect x="104" y="45" width="1" height="1" fill="#600000" />
<rect x="105" y="45" width="1" height="1" fill="#600000" />
<rect x="106" y="45" width="1" height="1" fill="#600000" />
<rect x="113" y="45" width="1" height="1" fill="#900000" />
<rect x="114" y="45" width="1" height="1" fill="#600000" />
<rect x="115" y="45" width="1" height="1" fill="#600000" />
<rect x="116" y="45" width="1" height="1" fill="#600000" />
<rect x="117" y="45" width="1" height="1" fill="#600000" />
<rect x="118" y="45" width="1" height="1" fill="#900000" />
<rect x="126" y="45" width="1" height="1" fill="#900000" />
<rect x="127" y="45" width="1" height="1" fill="#600000" />
<rect x="128" y="45" width="1" height="1" fill="#600000" />
<rect x="129" y="45" width="1" height="1" fill="#600000" />
<rect x="130" y="45" width="1" height="1" fill="#600000" />
<rect x="131" y="45" width="1" height="1" fill="#900000" />
<rect x="135" y="45" width="1" height="1" fill="#600000" />
<rect x="136" y="45" width="1" height="1" fill="#600000" />
<rect x="137" y="45" width="1" height="1" fill="#600000" />
<rect x="52" y="46" width="1" height="1" fill="#600000" />
<rect x="53" y="46" width="1" height="1" fill="#600000" />
<rect x="54" y="46" width="1" height="1" fill="#600000" />
<rect x="55" y="46" width="1" height="1" fill="#600000" />
<rect x="63" y="46" width="1" height="1" fill="#600000" />
<rect x="64" y="46" width="1" height="1" fill="#600000" />
<rect x="65" y="46" width="1" height="1" fill="#600000" />
<rect x="66" y="46" width="1" height="1" fill="#600000" />
<rect x="77" y="46" width="1" height="1" fill="#600000" />
<rect x="78" y="46" width="1" height="1" fill="#600000" />
<rect x="79" y="46" width="1" height="1" fill="#600000" />
<rect x="80" y="46" width="1" height="1" fill="#600000" />
<rect x="81" y="46" width="1" height="1" fill="#600000" />
<rect x="82" y="46" width="1" height="1" fill="#600000" />
<rect x="89" y="46" width="1" height="1" fill="#600000" />
<rect x="90" y="46" width="1" height="1" fill="#600000" />
<rect x="91" y="46" width="1" height="1" fill="#600000" />
<rect x="92" y="46" width="1" height="1" fill="#600000" />
<rect x="103" y="46" width="1" height="1" fill="#600000" />
<rect x="104" y="46" width="1" height="1" fill="#600000" />
<rect x="105" y="46" width="1" height="1" fill="#600000" />
<rect x="106" y="46" width="1" height="1" fill="#600000" />
<rect x="113" y="46" width="1" height="1" fill="#600000" />
<rect x="114" y="46" width="1" height="1" fill="#600000" />
<rect x="115" y="46" width="1" height="1" fill="#600000" />
<rect x="116" y="46" width="1" height="1" fill="#600000" />
<rect x="117" y="46" width="1" height="1" fill="#600000" />
<rect x="118" y="46" width="1" height="1" fill="#600000" />
<rect x="126" y="46" width="1" height="1" fill="#600000" />
<rect x="127" y="46" width="1" height="1" fill="#600000" />
<rect x="128" y="46" width="1" height="1" fill="#600000" />
<rect x="129" y="46" width="1" height="1" fill="#600000" />
<rect x="130" y="46" width="1" height="1" fill="#600000" />
<rect x="131" y="46" width="1" height="1" fill="#600000" />
<rect x="135" y="46" width="1" height="1" fill="#600000" />
<rect x="136" y="46" width="1" height="1" fill="#600000" />
<rect x="137" y="46" width="1" height="1" fill="#600000" />
<rect x="52" y="47" width="1" height="1" fill="#600000" />
<rect x="53" y="47" width="1" height="1" fill="#600000" />
<rect x="54" y="47" width="1" height="1" fill="#600000" />
<rect x="55" y="47" width="1" height="1" fill="#600000" />
<rect x="63" y="47" width="1" height="1" fill="#600000" />
<rect x="64" y="47" width="1" height="1" fill="#600000" />
<rect x="65" y="47" width="1" height="1" fill="#600000" />
<rect x="66" y="47" width="1" height="1" fill="#600000" />
<rect x="77" y="47" width="1" height="1" fill="#600000" />
<rect x="78" y="47" width="1" height="1" fill="#600000" />
<rect x="79" y="47" width="1" height="1" fill="#600000" />
<rect x="80" y="47" width="1" height="1" fill="#600000" />
<rect x="81" y="47" width="1" height="1" fill="#600000" />
<rect x="82" y="47" width="1" height="1" fill="#600000" />
<rect x="83" y="47" width="1" height="1" fill="#900000" />
<rect x="89" y="47" width="1" height="1" fill="#600000" />
<rect x="90" y="47" width="1" height="1" fill="#600000" />
<rect x="91" y="47" width="1" height="1" fill="#600000" />
<rect x="92" y="47" width="1" height="1" fill="#600000" />
<rect x="103" y="47" width="1" height="1" fill="#600000" />
<rect x="104" y="47" width="1" height="1" fill="#600000" />
<rect x="105" y="47" width="1" height="1" fill="#600000" />
<rect x="106" y="47" width="1" height="1" fill="#600000" />
<rect x="113" y="47" width="1" height="1" fill="#600000" />
<rect x="114" y="47" width="1" height="1" fill="#600000" />
<rect x="115" y="47" width="1" height="1" fill="#600000" />
<rect x="116" y="47" width="1" height="1" fill="#600000" />
<rect x="117" y="47" width="1" height="1" fill="#600000" />
<rect x="118" y="47" width="1" height="1" fill="#600000" />
<rect x="119" y="47" width="1" height="1" fill="#900000" />
<rect x="126" y="47" width="1" height="1" fill="#600000" />
<rect x="127" y="47" width="1" height="1" fill="#600000" />
<rect x="129" y="47" width="1" height="1" fill="#600000" />
<rect x="130" y="47" width="1" height="1" fill="#600000" />
<rect x="131" y="47" width="1" height="1" fill="#600000" />
<rect x="132" y="47" width="1" height="1" fill="#900000" />
<rect x="135" y="47" width="1" height="1" fill="#600000" />
<rect x="136" y="47" width="1" height="1" fill="#600000" />
<rect x="137" y="47" width="1" height="1" fill="#600000" />
<rect x="52" y="48" width="1" height="1" fill="#600000" />
<rect x="53" y="48" width="1" height="1" fill="#600000" />
<rect x="54" y="48" width="1" height="1" fill="#600000" />
<rect x="55" y="48" width="1" height="1" fill="#600000" />
<rect x="63" y="48" width="1" height="1" fill="#600000" />
<rect x="64" y="48" width="1" height="1" fill="#600000" />
<rect x="65" y="48" width="1" height="1" fill="#600000" />
<rect x="66" y="48" width="1" height="1" fill="#600000" />
<rect x="76" y="48" width="1" height="1" fill="#900000" />
<rect x="77" y="48" width="1" height="1" fill="#600000" />
<rect x="79" y="48" width="1" height="1" fill="#600000" />
<rect x="80" y="48" width="1" height="1" fill="#600000" />
<rect x="81" y="48" width="1" height="1" fill="#600000" />
<rect x="82" y="48" width="1" height="1" fill="#600000" />
<rect x="83" y="48" width="1" height="1" fill="#600000" />
<rect x="89" y="48" width="1" height="1" fill="#600000" />
<rect x="90" y="48" width="1" height="1" fill="#600000" />
<rect x="91" y="48" width="1" height="1" fill="#600000" />
<rect x="92" y="48" width="1" height="1" fill="#600000" />
<rect x="99" y="48" width="1" height="1" fill="#900000" />
<rect x="103" y="48" width="1" height="1" fill="#600000" />
<rect x="104" y="48" width="1" height="1" fill="#600000" />
<rect x="105" y="48" width="1" height="1" fill="#600000" />
<rect x="106" y="48" width="1" height="1" fill="#600000" />
<rect x="112" y="48" width="1" height="1" fill="#900000" />
<rect x="113" y="48" width="1" height="1" fill="#600000" />
<rect x="115" y="48" width="1" height="1" fill="#600000" />
<rect x="116" y="48" width="1" height="1" fill="#600000" />
<rect x="117" y="48" width="1" height="1" fill="#600000" />
<rect x="118" y="48" width="1" height="1" fill="#600000" />
<rect x="119" y="48" width="1" height="1" fill="#600000" />
<rect x="126" y="48" width="1" height="1" fill="#600000" />
<rect x="127" y="48" width="1" height="1" fill="#600000" />
<rect x="129" y="48" width="1" height="1" fill="#600000" />
<rect x="130" y="48" width="1" height="1" fill="#600000" />
<rect x="131" y="48" width="1" height="1" fill="#600000" />
<rect x="132" y="48" width="1" height="1" fill="#600000" />
<rect x="135" y="48" width="1" height="1" fill="#600000" />
<rect x="136" y="48" width="1" height="1" fill="#600000" />
<rect x="137" y="48" width="1" height="1" fill="#600000" />
<rect x="52" y="49" width="1" height="1" fill="#600000" />
<rect x="53" y="49" width="1" height="1" fill="#600000" />
<rect x="54" y="49" width="1" height="1" fill="#600000" />
<rect x="55" y="49" width="1" height="1" fill="#600000" />
<rect x="63" y="49" width="1" height="1" fill="#600000" />
<rect x="64" y="49" width="1" height="1" fill="#600000" />
<rect x="65" y="49" width="1" height="1" fill="#600000" />
<rect x="66" y="49" width="1" height="1" fill="#600000" />
<rect x="76" y="49" width="1" height="1" fill="#600000" />
<rect x="77" y="49" width="1" height="1" fill="#600000" />
<rect x="79" y="49" width="1" height="1" fill="#600000" />
<rect x="80" y="49" width="1" height="1" fill="#600000" />
<rect x="81" y="49" width="1" height="1" fill="#600000" />
<rect x="82" y="49" width="1" height="1" fill="#600000" />
<rect x="83" y="49" width="1" height="1" fill="#600000" />
<rect x="84" y="49" width="1" height="1" fill="#900000" />
<rect x="89" y="49" width="1" height="1" fill="#600000" />
<rect x="90" y="49" width="1" height="1" fill="#600000" />
<rect x="91" y="49" width="1" height="1" fill="#600000" />
<rect x="92" y="49" width="1" height="1" fill="#600000" />
<rect x="98" y="49" width="1" height="1" fill="#900000" />
<rect x="99" y="49" width="1" height="1" fill="#600000" />
<rect x="103" y="49" width="1" height="1" fill="#600000" />
<rect x="104" y="49" width="1" height="1" fill="#600000" />
<rect x="105" y="49" width="1" height="1" fill="#600000" />
<rect x="106" y="49" width="1" height="1" fill="#600000" />
<rect x="112" y="49" width="1" height="1" fill="#600000" />
<rect x="113" y="49" width="1" height="1" fill="#600000" />
<rect x="115" y="49" width="1" height="1" fill="#600000" />
<rect x="116" y="49" width="1" height="1" fill="#600000" />
<rect x="117" y="49" width="1" height="1" fill="#600000" />
<rect x="118" y="49" width="1" height="1" fill="#600000" />
<rect x="119" y="49" width="1" height="1" fill="#600000" />
<rect x="120" y="49" width="1" height="1" fill="#900000" />
<rect x="126" y="49" width="1" height="1" fill="#600000" />
<rect x="127" y="49" width="1" height="1" fill="#600000" />
<rect x="129" y="49" width="1" height="1" fill="#600000" />
<rect x="130" y="49" width="1" height="1" fill="#600000" />
<rect x="131" y="49" width="1" height="1" fill="#600000" />
<rect x="132" y="49" width="1" height="1" fill="#600000" />
<rect x="133" y="49" width="1" height="1" fill="#900000" />
<rect x="135" y="49" width="1" height="1" fill="#600000" />
<rect x="136" y="49" width="1" height="1" fill="#600000" />
<rect x="137" y="49" width="1" height="1" fill="#600000" />
<rect x="52" y="50" width="1" height="1" fill="#600000" />
<rect x="53" y="50" width="1" height="1" fill="#600000" />
<rect x="54" y="50" width="1" height="1" fill="#600000" />
<rect x="55" y="50" width="1" height="1" fill="#600000" />
<rect x="63" y="50" width="1" height="1" fill="#600000" />
<rect x="64" y="50" width="1" height="1" fill="#600000" />
<rect x="65" y="50" width="1" height="1" fill="#600000" />
<rect x="66" y="50" width="1" height="1" fill="#600000" />
<rect x="75" y="50" width="1" height="1" fill="#900000" />
<rect x="76" y="50" width="1" height="1" fill="#600000" />
<rect x="77" y="50" width="1" height="1" fill="#600000" />
<rect x="80" y="50" width="1" height="1" fill="#600000" />
<rect x="81" y="50" width="1" height="1" fill="#600000" />
<rect x="82" y="50" width="1" height="1" fill="#600000" />
<rect x="83" y="50" width="1" height="1" fill="#600000" />
<rect x="84" y="50" width="1" height="1" fill="#600000" />
<rect x="89" y="50" width="1" height="1" fill="#600000" />
<rect x="90" y="50" width="1" height="1" fill="#600000" />
<rect x="91" y="50" width="1" height="1" fill="#600000" />
<rect x="92" y="50" width="1" height="1" fill="#600000" />
<rect x="98" y="50" width="1" height="1" fill="#600000" />
<rect x="99" y="50" width="1" height="1" fill="#600000" />
<rect x="100" y="50" width="1" height="1" fill="#900000" />
<rect x="103" y="50" width="1" height="1" fill="#600000" />
<rect x="104" y="50" width="1" height="1" fill="#600000" />
<rect x="105" y="50" width="1" height="1" fill="#600000" />
<rect x="106" y="50" width="1" height="1" fill="#600000" />
<rect x="111" y="50" width="1" height="1" fill="#900000" />
<rect x="112" y="50" width="1" height="1" fill="#600000" />
<rect x="113" y="50" width="1" height="1" fill="#600000" />
<rect x="116" y="50" width="1" height="1" fill="#600000" />
<rect x="117" y="50" width="1" height="1" fill="#600000" />
<rect x="118" y="50" width="1" height="1" fill="#600000" />
<rect x="119" y="50" width="1" height="1" fill="#600000" />
<rect x="120" y="50" width="1" height="1" fill="#600000" />
<rect x="126" y="50" width="1" height="1" fill="#600000" />
<rect x="127" y="50" width="1" height="1" fill="#600000" />
<rect x="130" y="50" width="1" height="1" fill="#600000" />
<rect x="131" y="50" width="1" height="1" fill="#600000" />
<rect x="132" y="50" width="1" height="1" fill="#600000" />
<rect x="133" y="50" width="1" height="1" fill="#600000" />
<rect x="134" y="50" width="1" height="1" fill="#900000" />
<rect x="135" y="50" width="1" height="1" fill="#600000" />
<rect x="136" y="50" width="1" height="1" fill="#600000" />
<rect x="137" y="50" width="1" height="1" fill="#600000" />
<rect x="52" y="51" width="1" height="1" fill="#600000" />
<rect x="53" y="51" width="1" height="1" fill="#600000" />
<rect x="54" y="51" width="1" height="1" fill="#600000" />
<rect x="55" y="51" width="1" height="1" fill="#600000" />
<rect x="63" y="51" width="1" height="1" fill="#600000" />
<rect x="64" y="51" width="1" height="1" fill="#600000" />
<rect x="65" y="51" width="1" height="1" fill="#600000" />
<rect x="66" y="51" width="1" height="1" fill="#600000" />
<rect x="75" y="51" width="1" height="1" fill="#600000" />
<rect x="76" y="51" width="1" height="1" fill="#600000" />
<rect x="77" y="51" width="1" height="1" fill="#900000" />
<rect x="78" y="51" width="1" height="1" fill="#900000" />
<rect x="79" y="51" width="1" height="1" fill="#900000" />
<rect x="80" y="51" width="1" height="1" fill="#600000" />
<rect x="81" y="51" width="1" height="1" fill="#600000" />
<rect x="82" y="51" width="1" height="1" fill="#600000" />
<rect x="83" y="51" width="1" height="1" fill="#600000" />
<rect x="84" y="51" width="1" height="1" fill="#600000" />
<rect x="89" y="51" width="1" height="1" fill="#600000" />
<rect x="90" y="51" width="1" height="1" fill="#600000" />
<rect x="91" y="51" width="1" height="1" fill="#600000" />
<rect x="92" y="51" width="1" height="1" fill="#600000" />
<rect x="98" y="51" width="1" height="1" fill="#600000" />
<rect x="99" y="51" width="1" height="1" fill="#600000" />
<rect x="100" y="51" width="1" height="1" fill="#600000" />
<rect x="103" y="51" width="1" height="1" fill="#600000" />
<rect x="104" y="51" width="1" height="1" fill="#600000" />
<rect x="105" y="51" width="1" height="1" fill="#600000" />
<rect x="106" y="51" width="1" height="1" fill="#600000" />
<rect x="111" y="51" width="1" height="1" fill="#600000" />
<rect x="112" y="51" width="1" height="1" fill="#600000" />
<rect x="113" y="51" width="1" height="1" fill="#900000" />
<rect x="114" y="51" width="1" height="1" fill="#900000" />
<rect x="115" y="51" width="1" height="1" fill="#900000" />
<rect x="116" y="51" width="1" height="1" fill="#600000" />
<rect x="117" y="51" width="1" height="1" fill="#600000" />
<rect x="118" y="51" width="1" height="1" fill="#600000" />
<rect x="119" y="51" width="1" height="1" fill="#600000" />
<rect x="120" y="51" width="1" height="1" fill="#600000" />
<rect x="126" y="51" width="1" height="1" fill="#600000" />
<rect x="127" y="51" width="1" height="1" fill="#600000" />
<rect x="130" y="51" width="1" height="1" fill="#600000" />
<rect x="131" y="51" width="1" height="1" fill="#600000" />
<rect x="132" y="51" width="1" height="1" fill="#600000" />
<rect x="133" y="51" width="1" height="1" fill="#600000" />
<rect x="134" y="51" width="1" height="1" fill="#600000" />
<rect x="135" y="51" width="1" height="1" fill="#600000" />
<rect x="136" y="51" width="1" height="1" fill="#600000" />
<rect x="137" y="51" width="1" height="1" fill="#600000" />
<rect x="52" y="52" width="1" height="1" fill="#600000" />
<rect x="53" y="52" width="1" height="1" fill="#600000" />
<rect x="54" y="52" width="1" height="1" fill="#600000" />
<rect x="55" y="52" width="1" height="1" fill="#600000" />
<rect x="63" y="52" width="1" height="1" fill="#600000" />
<rect x="64" y="52" width="1" height="1" fill="#600000" />
<rect x="65" y="52" width="1" height="1" fill="#600000" />
<rect x="66" y="52" width="1" height="1" fill="#600000" />
<rect x="74" y="52" width="1" height="1" fill="#900000" />
<rect x="75" y="52" width="1" height="1" fill="#600000" />
<rect x="76" y="52" width="1" height="1" fill="#600000" />
<rect x="77" y="52" width="1" height="1" fill="#600000" />
<rect x="78" y="52" width="1" height="1" fill="#600000" />
<rect x="79" y="52" width="1" height="1" fill="#600000" />
<rect x="80" y="52" width="1" height="1" fill="#600000" />
<rect x="81" y="52" width="1" height="1" fill="#600000" />
<rect x="82" y="52" width="1" height="1" fill="#600000" />
<rect x="83" y="52" width="1" height="1" fill="#600000" />
<rect x="84" y="52" width="1" height="1" fill="#600000" />
<rect x="85" y="52" width="1" height="1" fill="#900000" />
<rect x="89" y="52" width="1" height="1" fill="#600000" />
<rect x="90" y="52" width="1" height="1" fill="#600000" />
<rect x="91" y="52" width="1" height="1" fill="#600000" />
<rect x="92" y="52" width="1" height="1" fill="#600000" />
<rect x="97" y="52" width="1" height="1" fill="#900000" />
<rect x="98" y="52" width="1" height="1" fill="#600000" />
<rect x="99" y="52" width="1" height="1" fill="#600000" />
<rect x="100" y="52" width="1" height="1" fill="#600000" />
<rect x="103" y="52" width="1" height="1" fill="#600000" />
<rect x="104" y="52" width="1" height="1" fill="#600000" />
<rect x="105" y="52" width="1" height="1" fill="#600000" />
<rect x="106" y="52" width="1" height="1" fill="#600000" />
<rect x="110" y="52" width="1" height="1" fill="#900000" />
<rect x="111" y="52" width="1" height="1" fill="#600000" />
<rect x="112" y="52" width="1" height="1" fill="#600000" />
<rect x="113" y="52" width="1" height="1" fill="#600000" />
<rect x="114" y="52" width="1" height="1" fill="#600000" />
<rect x="115" y="52" width="1" height="1" fill="#600000" />
<rect x="116" y="52" width="1" height="1" fill="#600000" />
<rect x="117" y="52" width="1" height="1" fill="#600000" />
<rect x="118" y="52" width="1" height="1" fill="#600000" />
<rect x="119" y="52" width="1" height="1" fill="#600000" />
<rect x="120" y="52" width="1" height="1" fill="#600000" />
<rect x="121" y="52" width="1" height="1" fill="#900000" />
<rect x="126" y="52" width="1" height="1" fill="#600000" />
<rect x="127" y="52" width="1" height="1" fill="#900000" />
<rect x="131" y="52" width="1" height="1" fill="#600000" />
<rect x="132" y="52" width="1" height="1" fill="#600000" />
<rect x="133" y="52" width="1" height="1" fill="#600000" />
<rect x="134" y="52" width="1" height="1" fill="#600000" />
<rect x="135" y="52" width="1" height="1" fill="#600000" />
<rect x="136" y="52" width="1" height="1" fill="#600000" />
<rect x="137" y="52" width="1" height="1" fill="#600000" />
<rect x="51" y="53" width="1" height="1" fill="#900000" />
<rect x="52" y="53" width="1" height="1" fill="#600000" />
<rect x="53" y="53" width="1" height="1" fill="#600000" />
<rect x="54" y="53" width="1" height="1" fill="#600000" />
<rect x="55" y="53" width="1" height="1" fill="#600000" />
<rect x="56" y="53" width="1" height="1" fill="#900000" />
<rect x="61" y="53" width="1" height="1" fill="#900000" />
<rect x="62" y="53" width="1" height="1" fill="#900000" />
<rect x="63" y="53" width="1" height="1" fill="#600000" />
<rect x="64" y="53" width="1" height="1" fill="#600000" />
<rect x="65" y="53" width="1" height="1" fill="#600000" />
<rect x="66" y="53" width="1" height="1" fill="#600000" />
<rect x="67" y="53" width="1" height="1" fill="#900000" />
<rect x="68" y="53" width="1" height="1" fill="#900000" />
<rect x="73" y="53" width="1" height="1" fill="#900000" />
<rect x="74" y="53" width="1" height="1" fill="#600000" />
<rect x="75" y="53" width="1" height="1" fill="#600000" />
<rect x="76" y="53" width="1" height="1" fill="#900000" />
<rect x="81" y="53" width="1" height="1" fill="#600000" />
<rect x="82" y="53" width="1" height="1" fill="#600000" />
<rect x="83" y="53" width="1" height="1" fill="#600000" />
<rect x="84" y="53" width="1" height="1" fill="#600000" />
<rect x="85" y="53" width="1" height="1" fill="#600000" />
<rect x="86" y="53" width="1" height="1" fill="#900000" />
<rect x="88" y="53" width="1" height="1" fill="#900000" />
<rect x="89" y="53" width="1" height="1" fill="#600000" />
<rect x="90" y="53" width="1" height="1" fill="#600000" />
<rect x="91" y="53" width="1" height="1" fill="#600000" />
<rect x="92" y="53" width="1" height="1" fill="#600000" />
<rect x="93" y="53" width="1" height="1" fill="#900000" />
<rect x="94" y="53" width="1" height="1" fill="#900000" />
<rect x="95" y="53" width="1" height="1" fill="#900000" />
<rect x="96" y="53" width="1" height="1" fill="#900000" />
<rect x="97" y="53" width="1" height="1" fill="#600000" />
<rect x="98" y="53" width="1" height="1" fill="#600000" />
<rect x="99" y="53" width="1" height="1" fill="#600000" />
<rect x="100" y="53" width="1" height="1" fill="#600000" />
<rect x="102" y="53" width="1" height="1" fill="#900000" />
<rect x="103" y="53" width="1" height="1" fill="#600000" />
<rect x="104" y="53" width="1" height="1" fill="#600000" />
<rect x="105" y="53" width="1" height="1" fill="#600000" />
<rect x="106" y="53" width="1" height="1" fill="#600000" />
<rect x="107" y="53" width="1" height="1" fill="#900000" />
<rect x="109" y="53" width="1" height="1" fill="#900000" />
<rect x="110" y="53" width="1" height="1" fill="#600000" />
<rect x="111" y="53" width="1" height="1" fill="#600000" />
<rect x="112" y="53" width="1" height="1" fill="#900000" />
<rect x="117" y="53" width="1" height="1" fill="#600000" />
<rect x="118" y="53" width="1" height="1" fill="#600000" />
<rect x="119" y="53" width="1" height="1" fill="#600000" />
<rect x="120" y="53" width="1" height="1" fill="#600000" />
<rect x="121" y="53" width="1" height="1" fill="#600000" />
<rect x="122" y="53" width="1" height="1" fill="#900000" />
<rect x="124" y="53" width="1" height="1" fill="#900000" />
<rect x="125" y="53" width="1" height="1" fill="#900000" />
<rect x="126" y="53" width="1" height="1" fill="#600000" />
<rect x="127" y="53" width="1" height="1" fill="#600000" />
<rect x="128" y="53" width="1" height="1" fill="#900000" />
<rect x="131" y="53" width="1" height="1" fill="#600000" />
<rect x="132" y="53" width="1" height="1" fill="#600000" />
<rect x="133" y="53" width="1" height="1" fill="#600000" />
<rect x="134" y="53" width="1" height="1" fill="#600000" />
<rect x="135" y="53" width="1" height="1" fill="#600000" />
<rect x="136" y="53" width="1" height="1" fill="#600000" />
<rect x="137" y="53" width="1" height="1" fill="#600000" />
<rect x="138" y="53" width="1" height="1" fill="#900000" />
<rect x="51" y="54" width="1" height="1" fill="#600000" />
<rect x="52" y="54" width="1" height="1" fill="#600000" />
<rect x="53" y="54" width="1" height="1" fill="#600000" />
<rect x="54" y="54" width="1" height="1" fill="#600000" />
<rect x="55" y="54" width="1" height="1" fill="#600000" />
<rect x="56" y="54" width="1" height="1" fill="#600000" />
<rect x="61" y="54" width="1" height="1" fill="#600000" />
<rect x="62" y="54" width="1" height="1" fill="#600000" />
<rect x="63" y="54" width="1" height="1" fill="#600000" />
<rect x="64" y="54" width="1" height="1" fill="#600000" />
<rect x="65" y="54" width="1" height="1" fill="#600000" />
<rect x="66" y="54" width="1" height="1" fill="#600000" />
<rect x="67" y="54" width="1" height="1" fill="#600000" />
<rect x="68" y="54" width="1" height="1" fill="#600000" />
<rect x="73" y="54" width="1" height="1" fill="#600000" />
<rect x="74" y="54" width="1" height="1" fill="#600000" />
<rect x="75" y="54" width="1" height="1" fill="#600000" />
<rect x="76" y="54" width="1" height="1" fill="#600000" />
<rect x="80" y="54" width="1" height="1" fill="#900000" />
<rect x="81" y="54" width="1" height="1" fill="#600000" />
<rect x="82" y="54" width="1" height="1" fill="#600000" />
<rect x="83" y="54" width="1" height="1" fill="#600000" />
<rect x="84" y="54" width="1" height="1" fill="#600000" />
<rect x="85" y="54" width="1" height="1" fill="#600000" />
<rect x="86" y="54" width="1" height="1" fill="#600000" />
<rect x="88" y="54" width="1" height="1" fill="#600000" />
<rect x="89" y="54" width="1" height="1" fill="#600000" />
<rect x="90" y="54" width="1" height="1" fill="#600000" />
<rect x="91" y="54" width="1" height="1" fill="#600000" />
<rect x="92" y="54" width="1" height="1" fill="#600000" />
<rect x="93" y="54" width="1" height="1" fill="#600000" />
<rect x="94" y="54" width="1" height="1" fill="#600000" />
<rect x="95" y="54" width="1" height="1" fill="#600000" />
<rect x="96" y="54" width="1" height="1" fill="#600000" />
<rect x="97" y="54" width="1" height="1" fill="#600000" />
<rect x="98" y="54" width="1" height="1" fill="#600000" />
<rect x="99" y="54" width="1" height="1" fill="#600000" />
<rect x="102" y="54" width="1" height="1" fill="#600000" />
<rect x="103" y="54" width="1" height="1" fill="#600000" />
<rect x="104" y="54" width="1" height="1" fill="#600000" />
<rect x="105" y="54" width="1" height="1" fill="#600000" />
<rect x="106" y="54" width="1" height="1" fill="#600000" />
<rect x="107" y="54" width="1" height="1" fill="#600000" />
<rect x="109" y="54" width="1" height="1" fill="#600000" />
<rect x="110" y="54" width="1" height="1" fill="#600000" />
<rect x="111" y="54" width="1" height="1" fill="#600000" />
<rect x="112" y="54" width="1" height="1" fill="#600000" />
<rect x="116" y="54" width="1" height="1" fill="#900000" />
<rect x="117" y="54" width="1" height="1" fill="#600000" />
<rect x="118" y="54" width="1" height="1" fill="#600000" />
<rect x="119" y="54" width="1" height="1" fill="#600000" />
<rect x="120" y="54" width="1" height="1" fill="#600000" />
<rect x="121" y="54" width="1" height="1" fill="#600000" />
<rect x="122" y="54" width="1" height="1" fill="#600000" />
<rect x="124" y="54" width="1" height="1" fill="#600000" />
<rect x="125" y="54" width="1" height="1" fill="#600000" />
<rect x="126" y="54" width="1" height="1" fill="#600000" />
<rect x="127" y="54" width="1" height="1" fill="#600000" />
<rect x="128" y="54" width="1" height="1" fill="#600000" />
<rect x="132" y="54" width="1" height="1" fill="#600000" />
<rect x="133" y="54" width="1" height="1" fill="#600000" />
<rect x="134" y="54" width="1" height="1" fill="#600000" />
<rect x="135" y="54" width="1" height="1" fill="#600000" />
<rect x="136" y="54" width="1" height="1" fill="#600000" />
<rect x="137" y="54" width="1" height="1" fill="#600000" />
<rect x="138" y="54" width="1" height="1" fill="#600000" />
<rect x="139" y="54" width="1" height="1" fill="#900000" />
<rect x="51" y="55" width="1" height="1" fill="#600000" />
<rect x="52" y="55" width="1" height="1" fill="#600000" />
<rect x="53" y="55" width="1" height="1" fill="#600000" />
<rect x="54" y="55" width="1" height="1" fill="#600000" />
<rect x="55" y="55" width="1" height="1" fill="#600000" />
<rect x="56" y="55" width="1" height="1" fill="#600000" />
<rect x="61" y="55" width="1" height="1" fill="#600000" />
<rect x="62" y="55" width="1" height="1" fill="#600000" />
<rect x="63" y="55" width="1" height="1" fill="#600000" />
<rect x="64" y="55" width="1" height="1" fill="#600000" />
<rect x="65" y="55" width="1" height="1" fill="#600000" />
<rect x="66" y="55" width="1" height="1" fill="#600000" />
<rect x="67" y="55" width="1" height="1" fill="#600000" />
<rect x="68" y="55" width="1" height="1" fill="#600000" />
<rect x="73" y="55" width="1" height="1" fill="#600000" />
<rect x="74" y="55" width="1" height="1" fill="#600000" />
<rect x="75" y="55" width="1" height="1" fill="#600000" />
<rect x="76" y="55" width="1" height="1" fill="#600000" />
<rect x="80" y="55" width="1" height="1" fill="#600000" />
<rect x="81" y="55" width="1" height="1" fill="#600000" />
<rect x="82" y="55" width="1" height="1" fill="#600000" />
<rect x="83" y="55" width="1" height="1" fill="#600000" />
<rect x="84" y="55" width="1" height="1" fill="#600000" />
<rect x="85" y="55" width="1" height="1" fill="#600000" />
<rect x="86" y="55" width="1" height="1" fill="#600000" />
<rect x="88" y="55" width="1" height="1" fill="#600000" />
<rect x="89" y="55" width="1" height="1" fill="#600000" />
<rect x="90" y="55" width="1" height="1" fill="#600000" />
<rect x="91" y="55" width="1" height="1" fill="#600000" />
<rect x="92" y="55" width="1" height="1" fill="#600000" />
<rect x="93" y="55" width="1" height="1" fill="#600000" />
<rect x="94" y="55" width="1" height="1" fill="#600000" />
<rect x="95" y="55" width="1" height="1" fill="#600000" />
<rect x="96" y="55" width="1" height="1" fill="#600000" />
<rect x="97" y="55" width="1" height="1" fill="#600000" />
<rect x="98" y="55" width="1" height="1" fill="#600000" />
<rect x="102" y="55" width="1" height="1" fill="#600000" />
<rect x="103" y="55" width="1" height="1" fill="#600000" />
<rect x="104" y="55" width="1" height="1" fill="#600000" />
<rect x="105" y="55" width="1" height="1" fill="#600000" />
<rect x="106" y="55" width="1" height="1" fill="#600000" />
<rect x="107" y="55" width="1" height="1" fill="#600000" />
<rect x="109" y="55" width="1" height="1" fill="#600000" />
<rect x="110" y="55" width="1" height="1" fill="#600000" />
<rect x="111" y="55" width="1" height="1" fill="#600000" />
<rect x="112" y="55" width="1" height="1" fill="#600000" />
<rect x="116" y="55" width="1" height="1" fill="#600000" />
<rect x="117" y="55" width="1" height="1" fill="#600000" />
<rect x="118" y="55" width="1" height="1" fill="#600000" />
<rect x="119" y="55" width="1" height="1" fill="#600000" />
<rect x="120" y="55" width="1" height="1" fill="#600000" />
<rect x="121" y="55" width="1" height="1" fill="#600000" />
<rect x="122" y="55" width="1" height="1" fill="#600000" />
<rect x="124" y="55" width="1" height="1" fill="#600000" />
<rect x="125" y="55" width="1" height="1" fill="#600000" />
<rect x="126" y="55" width="1" height="1" fill="#600000" />
<rect x="127" y="55" width="1" height="1" fill="#600000" />
<rect x="128" y="55" width="1" height="1" fill="#600000" />
<rect x="132" y="55" width="1" height="1" fill="#600000" />
<rect x="133" y="55" width="1" height="1" fill="#600000" />
<rect x="134" y="55" width="1" height="1" fill="#600000" />
<rect x="135" y="55" width="1" height="1" fill="#600000" />
<rect x="136" y="55" width="1" height="1" fill="#600000" />
<rect x="137" y="55" width="1" height="1" fill="#600000" />
<rect x="138" y="55" width="1" height="1" fill="#600000" />
<rect x="139" y="55" width="1" height="1" fill="#600000" />
</svg>