<?xml version="1.0" encoding="UTF-8" ?>
<svg version="1.1" width="192" height="96" xmlns="http://www.w3.org/2000/svg">
<rect x="64" y="36" width="1" height="1" fill="#555555" />
<rect x="65" y="36" width="1" height="1" fill="#555555" />
<rect x="66" y="36" width="1" height="1" fill="#555555" />
<rect x="67" y="36" width="1" height="1" fill="#555555" />
<rect x="68" y="36" width="1" height="1" fill="#555555" />
<rect x="69" y="36" width="1" height="1" fill="#555555" />
<rect x="70" y="36" width="1" height="1" fill="#555555" />
<rect x="71" y="36" width="1" height="1" fill="#555555" />
<rect x="72" y="36" width="1" height="1" fill="#555555" />
<rect x="73" y="36" width="1" height="1" fill="#555555" />
<rect x="74" y="36" width="1" height="1" fill="#555555" />
<rect x="75" y="36" width="1" height="1" fill="#555555" />
<rect x="76" y="36" width="1" height="1" fill="#555555" />
<rect x="77" y="36" width="1" height="1" fill="#555555" />
<rect x="78" y="36" width="1" height="1" fill="#555555" />
<rect x="79" y="36" width="1" height="1" fill="#555555" />
<rect x="80" y="36" width="1" height="1" fill="#555555" />
<rect x="81" y="36" width="1" height="1" fill="#555555" />
<rect x="82" y="36" width="1" height="1" fill="#555555" />
<rect x="83" y="36" width="1" height="1" fill="#555555" />
<rect x="84" y="36" width="1" height="1" fill="#555555" />
<rect x="85" y="36" width="1" height="1" fill="#555555" />
<rect x="86" y="36" width="1" height="1" fill="#555555" />
<rect x="87" y="36" width="1" height="1" fill="#555555" />
<rect x="88" y="36" width="1" height="1" fill="#555555" />
<rect x="89" y="36" width="1" height="1" fill="#555555" />
<rect x="90" y="36" width="1" height="1" fill="#555555" />
<rect x="91" y="36" width="1" height="1" fill="#555555" />
<rect x="92" y="36" width="1" height="1" fill="#555555" />
<rect x="93" y="36" width="1" height="1" fill="#555555" />
<rect x="94" y="36" width="1" height="1" fill="#555555" />
<rect x="95" y="36" width="1" height="1" fill="#555555" />
<rect x="96" y="36" width="1" height="1" fill="#555555" />
<rect x="97" y="36" width="1" height="1" fill="#555555" />
<rect x="98" y="36" width="1" height="1" fill="#555555" />
<rect x="99" y="36" width="1" height="1" fill="#555555" />
<rect x="100" y="36" width="1" height="1" fill="#555555" />
<rect x="101" y="36" width="1" height="1" fill="#555555" />
<rect x="102" y="36" width="1" height="1" fill="#555555" />
<rect x="103" y="36" width="1" height="1" fill="#555555" />
<rect x="104" y="36" width="1" height="1" fill="#555555" />
<rect x="105" y="36" width="1" height="1" fill="#555555" />
<rect x="106" y="36" width="1" height="1" fill="#555555" />
<rect x="107" y="36" width="1" height="1" fill="#555555" />
<rect x="108" y="36" width="1" height="1" fill="#555555" />
<rect x="109" y="36" width="1" height="1" fill="#555555" />
<rect x="110" y="36" width="1" height="1" fill="#555555" />
<rect x="111" y="36" width="1" height="1" fill="#555555" />
<rect x="112" y="36" width="1" height="1" fill="#555555" />
<rect x="113" y="36" width="1" height="1" fill="#555555" />
<rect x="114" y="36" width="1" height="1" fill="#555555" />
<rect x="115" y="36" width="1" height="1" fill="#555555" />
<rect x="116" y="36" width="1" height="1" fill="#555555" />
<rect x="117" y="36" width="1" height="1" fill="#555555" />
<rect x="118" y="36" width="1" height="1" fill="#555555" />
<rect x="119" y="36" width="1" height="1" fill="#555555" />
<rect x="120" y="36" width="1" height="1" fill="#555555" />
<rect x="121" y="36" width="1" height="1" fill="#555555" />
<rect x="122" y="36" width="1" height="1" fill="#555555" />
<rect x="123" y="36" width="1" height="1" fill="#555555" />
<rect x="124" y="36" width="1" height="1" fill="#555555" />
<rect x="125" y="36" width="1" height="1" fill="#555555" />
<rect x="126" y="36" width="1" height="1" fill="#555555" />
<rect x="127" y="36" width="1" height="1" fill="#555555" />
<rect x="64" y="37" width="1" height="1" fill="#000000" />
<rect x="65" y="37" width="1" height="1" fill="#000000" />
<rect x="66" y="37" width="1" height="1" fill="#000000" />
<rect x="67" y="37" width="1" height="1" fill="#000000" />
<rect x="68" y="37" width="1" height="1" fill="#000000" />
<rect x="69" y="37" width="1" height="1" fill="#000000" />
<rect x="70" y="37" width="1" height="1" fill="#000000" />
<rect x="71" y="37" width="1" height="1" fill="#000000" />
<rect x="72" y="37" width="1" height="1" fill="#000000" />
<rect x="73" y="37" width="1" height="1" fill="#000000" />
<rect x="74" y="37" width="1" height="1" fill="#000000" />
<rect x="75" y="37" width="1" height="1" fill="#000000" />
<rect x="76" y="37" width="1" height="1" fill="#000000" />
<rect x="77" y="37" width="1" height="1" fill="#000000" />
<rect x="78" y="37" width="1" height="1" fill="#000000" />
<rect x="79" y="37" width="1" height="1" fill="#000000" />
<rect x="80" y="37" width="1" height="1" fill="#000000" />
<rect x="81" y="37" width="1" height="1" fill="#000000" />
<rect x="82" y="37" width="1" height="1" fill="#000000" />
<rect x="83" y="37" width="1" height="1" fill="#000000" />
<rect x="84" y="37" width="1" height="1" fill="#000000" />
<rect x="85" y="37" width="1" height="1" fill="#000000" />
<rect x="86" y="37" width="1" height="1" fill="#000000" />
<rect x="87" y="37" width="1" height="1" fill="#000000" />
<rect x="88" y="37" width="1" height="1" fill="#000000" />
<rect x="89" y="37" width="1" height="1" fill="#000000" />
<rect x="90" y="37" width="1" height="1" fill="#000000" />
<rect x="91" y="37" width="1" height="1" fill="#000000" />
<rect x="92" y="37" width="1" height="1" fill="#000000" />
<rect x="93" y="37" width="1" height="1" fill="#000000" />
<rect x="94" y="37" width="1" height="1" fill="#000000" />
<rect x="95" y="37" width="1" height="1" fill="#000000" />
<rect x="96" y="37" width="1" height="1" fill="#000000" />
<rect x="97" y="37" width="1" height="1" fill="#000000" />
<rect x="98" y="37" width="1" height="1" fill="#000000" />
<rect x="99" y="37" width="1" height="1" fill="#000000" />
<rect x="100" y="37" width="1" height="1" fill="#000000" />
<rect x="101" y="37" width="1" height="1" fill="#000000" />
<rect x="102" y="37" width="1" height="1" fill="#000000" />
<rect x="103" y="37" width="1" height="1" fill="#000000" />
<rect x="104" y="37" width="1" height="1" fill="#000000" />
<rect x="105" y="37" width="1" height="1" fill="#000000" />
<rect x="106" y="37" width="1" height="1" fill="#000000" />
<rect x="107" y="37" width="1" height="1" fill="#000000" />
<rect x="108" y="37" width="1" height="1" fill="#000000" />
<rect x="109" y="37" width="1" height="1" fill="#000000" />
<rect x="110" y="37" width="1" height="1" fill="#000000" />
<rect x="111" y="37" width="1" height="1" fill="#000000" />
<rect x="112" y="37" width="1" height="1" fill="#000000" />
<rect x="113" y="37" width="1" height="1" fill="#000000" />
<rect x="114" y="37" width="1" height="1" fill="#000000" />
<rect x="115" y="37" width="1" height="1" fill="#000000" />
<rect x="116" y="37" width="1" height="1" fill="#000000" />
<rect x="117" y="37" width="1" height="1" fill="#000000" />
<rect x="118" y="37" width="1" height="1" fill="#000000" />
<rect x="119" y="37" width="1" height="1" fill="#000000" />
<rect x="120" y="37" width="1" height="1" fill="#000000" />
<rect x="121" y="37" width="1" height="1" fill="#000000" />
<rect x="122" y="37" width="1" height="1" fill="#000000" />
<rect x="123" y="37" width="1" height="1" fill="#000000" />
<rect x="124" y="37" width="1" height="1" fill="#000000" />
<rect x="125" y="37" width="1" height="1" fill="#000000" />
<rect x="126" y="37" width="1" height="1" fill="#000000" />
<rect x="127" y="37" width="1" height="1" fill="#000000" />
<rect x="64" y="38" width="1" height="1" fill="#000000" />
<rect x="65" y="38" width="1" height="1" fill="#000000" />
<rect x="66" y="38" width="1" height="1" fill="#000000" />
<rect x="67" y="38" width="1" height="1" fill="#000000" />
<rect x="68" y="38" width="1" height="1" fill="#000000" />
<rect x="69" y="38" width="1" height="1" fill="#000000" />
<rect x="70" y="38" width="1" height="1" fill="#000000" />
<rect x="71" y="38" width="1" height="1" fill="#000000" />
<rect x="72" y="38" width="1" height="1" fill="#000000" />
<rect x="73" y="38" width="1" height="1" fill="#000000" />
<rect x="74" y="38" width="1" height="1" fill="#000000" />
<rect x="75" y="38" width="1" height="1" fill="#000000" />
<rect x="76" y="38" width="1" height="1" fill="#000000" />
<rect x="77" y="38" width="1" height="1" fill="#000000" />
<rect x="78" y="38" width="1" height="1" fill="#000000" />
<rect x="79" y="38" width="1" height="1" fill="#000000" />
<rect x="80" y="38" width="1" height="1" fill="#000000" />
<rect x="81" y="38" width="1" height="1" fill="#000000" />
<rect x="82" y="38" width="1" height="1" fill="#000000" />
<rect x="83" y="38" width="1" height="1" fill="#000000" />
<rect x="84" y="38" width="1" height="1" fill="#000000" />
<rect x="85" y="38" width="1" height="1" fill="#000000" />
<rect x="86" y="38" width="1" height="1" fill="#000000" />
<rect x="87" y="38" width="1" height="1" fill="#000000" />
<rect x="88" y="38" width="1" height="1" fill="#000000" />
<rect x="89" y="38" width="1" height="1" fill="#000000" />
<rect x="90" y="38" width="1" height="1" fill="#000000" />
<rect x="91" y="38" width="1" height="1" fill="#000000" />
<rect x="92" y="38" width="1" height="1" fill="#000000" />
<rect x="93" y="38" width="1" height="1" fill="#000000" />
<rect x="94" y="38" width="1" height="1" fill="#000000" />
<rect x="95" y="38" width="1" height="1" fill="#000000" />
<rect x="96" y="38" width="1" height="1" fill="#000000" />
<rect x="97" y="38" width="1" height="1" fill="#000000" />
<rect x="98" y="38" width="1" height="1" fill="#000000" />
<rect x="99" y="38" width="1" height="1" fill="#000000" />
<rect x="100" y="38" width="1" height="1" fill="#000000" />
<rect x="101" y="38" width="1" height="1" fill="#000000" />
<rect x="102" y="38" width="1" height="1" fill="#000000" />
<rect x="103" y="38" width="1" height="1" fill="#000000" />
<rect x="104" y="38" width="1" height="1" fill="#000000" />
<rect x="105" y="38" width="1" height="1" fill="#000000" />
<rect x="106" y="38" width="1" height="1" fill="#000000" />
<rect x="107" y="38" width="1" height="1" fill="#000000" />
<rect x="108" y="38" width="1" height="1" fill="#000000" />
<rect x="109" y="38" width="1" height="1" fill="#000000" />
<rect x="110" y="38" width="1" height="1" fill="#000000" />
<rect x="111" y="38" width="1" height="1" fill="#000000" />
<rect x="112" y="38" width="1" height="1" fill="#000000" />
<rect x="113" y="38" width="1" height="1" fill="#000000" />
<rect x="114" y="38" width="1" height="1" fill="#000000" />
<rect x="115" y="38" width="1" height="1" fill="#000000" />
<rect x="116" y="38" width="1" height="1" fill="#000000" />
<rect x="117" y="38" width="1" height="1" fill="#000000" />
<rect x="118" y="38" width="1" height="1" fill="#000000" />
<rect x="119" y="38" width="1" height="1" fill="#000000" />
<rect x="120" y="38" width="1" height="1" fill="#000000" />
<rect x="121" y="38" width="1" height="1" fill="#000000" />
<rect x="122" y="38" width="1" height="1" fill="#000000" />
<rect x="123" y="38" width="1" height="1" fill="#000000" />
<rect x="124" y="38" width="1" height="1" fill="#000000" />
<rect x="125" y="38" width="1" height="1" fill="#000000" />
<rect x="126" y="38" width="1" height="1" fill="#000000" />
<rect x="127" y="38" width="1" height="1" fill="#000000" />
<rect x="64" y="39" width="1" height="1" fill="#000000" />
<rect x="65" y="39" width="1" height="1" fill="#000000" />
<rect x="66" y="39" width="1" height="1" fill="#000000" />
<rect x="125" y="39" width="1" height="1" fill="#000000" />
<rect x="126" y="39" width="1" height="1" fill="#000000" />
<rect x="127" y="39" width="1" height="1" fill="#000000" />
<rect x="64" y="40" width="1" height="1" fill="#000000" />
<rect x="65" y="40" width="1" height="1" fill="#000000" />
<rect x="66" y="40" width="1" height="1" fill="#000000" />
<rect x="125" y="40" width="1" height="1" fill="#000000" />
<rect x="126" y="40" width="1" height="1" fill="#000000" />
<rect x="127" y="40" width="1" height="1" fill="#000000" />
<rect x="64" y="41" width="1" height="1" fill="#000000" />
<rect x="65" y="41" width="1" height="1" fill="#000000" />
<rect x="66" y="41" width="1" height="1" fill="#000000" />
<rect x="80" y="41" width="1" height="1" fill="#555555" />
<rect x="81" y="41" width="1" height="1" fill="#555555" />
<rect x="82" y="41" width="1" height="1" fill="#555555" />
<rect x="83" y="41" width="1" height="1" fill="#555555" />
<rect x="84" y="41" width="1" height="1" fill="#555555" />
<rect x="85" y="41" width="1" height="1" fill="#555555" />
<rect x="92" y="41" width="1" height="1" fill="#555555" />
<rect x="93" y="41" width="1" height="1" fill="#555555" />
<rect x="94" y="41" width="1" height="1" fill="#555555" />
<rect x="95" y="41" width="1" height="1" fill="#555555" />
<rect x="96" y="41" width="1" height="1" fill="#555555" />
<rect x="97" y="41" width="1" height="1" fill="#555555" />
<rect x="105" y="41" width="1" height="1" fill="#555555" />
<rect x="106" y="41" width="1" height="1" fill="#555555" />
<rect x="107" y="41" width="1" height="1" fill="#555555" />
<rect x="108" y="41" width="1" height="1" fill="#555555" />
<rect x="109" y="41" width="1" height="1" fill="#555555" />
<rect x="125" y="41" width="1" height="1" fill="#000000" />
<rect x="126" y="41" width="1" height="1" fill="#000000" />
<rect x="127" y="41" width="1" height="1" fill="#000000" />
<rect x="64" y="42" width="1" height="1" fill="#000000" />
<rect x="65" y="42" width="1" height="1" fill="#000000" />
<rect x="66" y="42" width="1" height="1" fill="#000000" />
<rect x="80" y="42" width="1" height="1" fill="#000000" />
<rect x="81" y="42" width="1" height="1" fill="#000000" />
<rect x="82" y="42" width="1" height="1" fill="#000000" />
<rect x="83" y="42" width="1" height="1" fill="#000000" />
<rect x="84" y="42" width="1" height="1" fill="#000000" />
<rect x="85" y="42" width="1" height="1" fill="#000000" />
<rect x="92" y="42" width="1" height="1" fill="#000000" />
<rect x="93" y="42" width="1" height="1" fill="#000000" />
<rect x="94" y="42" width="1" height="1" fill="#000000" />
<rect x="95" y="42" width="1" height="1" fill="#000000" />
<rect x="96" y="42" width="1" height="1" fill="#000000" />
<rect x="97" y="42" width="1" height="1" fill="#000000" />
<rect x="105" y="42" width="1" height="1" fill="#000000" />
<rect x="106" y="42" width="1" height="1" fill="#000000" />
<rect x="107" y="42" width="1" height="1" fill="#000000" />
<rect x="108" y="42" width="1" height="1" fill="#000000" />
<rect x="109" y="42" width="1" height="1" fill="#000000" />
<rect x="125" y="42" width="1" height="1" fill="#000000" />
<rect x="126" y="42" width="1" height="1" fill="#000000" />
<rect x="127" y="42" width="1" height="1" fill="#000000" />
<rect x="64" y="43" width="1" height="1" fill="#000000" />
<rect x="65" y="43" width="1" height="1" fill="#000000" />
<rect x="66" y="43" width="1" height="1" fill="#000000" />
<rect x="80" y="43" width="1" height="1" fill="#000000" />
<rect x="81" y="43" width="1" height="1" fill="#000000" />
<rect x="82" y="43" width="1" height="1" fill="#000000" />
<rect x="83" y="43" width="1" height="1" fill="#000000" />
<rect x="84" y="43" width="1" height="1" fill="#000000" />
<rect x="85" y="43" width="1" height="1" fill="#000000" />
<rect x="86" y="43" width="1" height="1" fill="#555555" />
<rect x="91" y="43" width="1" height="1" fill="#555555" />
<rect x="92" y="43" width="1" height="1" fill="#000000" />
<rect x="93" y="43" width="1" height="1" fill="#000000" />
<rect x="94" y="43" width="1" height="1" fill="#000000" />
<rect x="95" y="43" width="1" height="1" fill="#000000" />
<rect x="96" y="43" width="1" height="1" fill="#000000" />
<rect x="97" y="43" width="1" height="1" fill="#000000" />
<rect x="105" y="43" width="1" height="1" fill="#000000" />
<rect x="106" y="43" width="1" height="1" fill="#000000" />
<rect x="107" y="43" width="1" height="1" fill="#000000" />
<rect x="108" y="43" width="1" height="1" fill="#000000" />
<rect x="109" y="43" width="1" height="1" fill="#000000" />
<rect x="125" y="43" width="1" height="1" fill="#000000" />
<rect x="126" y="43" width="1" height="1" fill="#000000" />
<rect x="127" y="43" width="1" height="1" fill="#000000" />
<rect x="64" y="44" width="1" height="1" fill="#000000" />
<rect x="65" y="44" width="1" height="1" fill="#000000" />
<rect x="66" y="44" width="1" height="1" fill="#000000" />
<rect x="82" y="44" width="1" height="1" fill="#000000" />
<rect x="83" y="44" width="1" height="1" fill="#000000" />
<rect x="84" y="44" width="1" height="1" fill="#000000" />
<rect x="85" y="44" width="1" height="1" fill="#000000" />
<rect x="86" y="44" width="1" height="1" fill="#000000" />
<rect x="91" y="44" width="1" height="1" fill="#000000" />
<rect x="92" y="44" width="1" height="1" fill="#000000" />
<rect x="93" y="44" width="1" height="1" fill="#000000" />
<rect x="94" y="44" width="1" height="1" fill="#000000" />
<rect x="95" y="44" width="1" height="1" fill="#000000" />
<rect x="96" y="44" width="1" height="1" fill="#000000" />
<rect x="105" y="44" width="1" height="1" fill="#000000" />
<rect x="106" y="44" width="1" height="1" fill="#000000" />
<rect x="107" y="44" width="1" height="1" fill="#000000" />
<rect x="108" y="44" width="1" height="1" fill="#000000" />
<rect x="109" y="44" width="1" height="1" fill="#000000" />
<rect x="125" y="44" width="1" height="1" fill="#000000" />
<rect x="126" y="44" width="1" height="1" fill="#000000" />
<rect x="127" y="44" width="1" height="1" fill="#000000" />
<rect x="64" y="45" width="1" height="1" fill="#000000" />
<rect x="65" y="45" width="1" height="1" fill="#000000" />
<rect x="66" y="45" width="1" height="1" fill="#000000" />
<rect x="81" y="45" width="1" height="1" fill="#555555" />
<rect x="82" y="45" width="1" height="1" fill="#000000" />
<rect x="83" y="45" width="1" height="1" fill="#000000" />
<rect x="84" y="45" width="1" height="1" fill="#000000" />
<rect x="85" y="45" width="1" height="1" fill="#000000" />
<rect x="86" y="45" width="1" height="1" fill="#000000" />
<rect x="87" y="45" width="1" height="1" fill="#555555" />
<rect x="91" y="45" width="1" height="1" fill="#000000" />
<rect x="92" y="45" width="1" height="1" fill="#000000" />
<rect x="93" y="45" width="1" height="1" fill="#000000" />
<rect x="94" y="45" width="1" height="1" fill="#000000" />
<rect x="95" y="45" width="1" height="1" fill="#000000" />
<rect x="96" y="45" width="1" height="1" fill="#555555" />
<rect x="105" y="45" width="1" height="1" fill="#000000" />
<rect x="106" y="45" width="1" height="1" fill="#000000" />
<rect x="107" y="45" width="1" height="1" fill="#000000" />
<rect x="108" y="45" width="1" height="1" fill="#000000" />
<rect x="109" y="45" width="1" height="1" fill="#000000" />
<rect x="125" y="45" width="1" height="1" fill="#000000" />
<rect x="126" y="45" width="1" height="1" fill="#000000" />
<rect x="127" y="45" width="1" height="1" fill="#000000" />
<rect x="64" y="46" width="1" height="1" fill="#000000" />
<rect x="65" y="46" width="1" height="1" fill="#000000" />
<rect x="66" y="46" width="1" height="1" fill="#000000" />
<rect x="81" y="46" width="1" height="1" fill="#000000" />
<rect x="82" y="46" width="1" height="1" fill="#000000" />
<rect x="83" y="46" width="1" height="1" fill="#000000" />
<rect x="84" y="46" width="1" height="1" fill="#000000" />
<rect x="85" y="46" width="1" height="1" fill="#000000" />
<rect x="86" y="46" width="1" height="1" fill="#000000" />
<rect x="87" y="46" width="1" height="1" fill="#000000" />
<rect x="90" y="46" width="1" height="1" fill="#555555" />
<rect x="91" y="46" width="1" height="1" fill="#000000" />
<rect x="93" y="46" width="1" height="1" fill="#000000" />
<rect x="94" y="46" width="1" height="1" fill="#000000" />
<rect x="95" y="46" width="1" height="1" fill="#000000" />
<rect x="96" y="46" width="1" height="1" fill="#000000" />
<rect x="105" y="46" width="1" height="1" fill="#000000" />
<rect x="106" y="46" width="1" height="1" fill="#000000" />
<rect x="107" y="46" width="1" height="1" fill="#000000" />
<rect x="108" y="46" width="1" height="1" fill="#000000" />
<rect x="109" y="46" width="1" height="1" fill="#000000" />
<rect x="125" y="46" width="1" height="1" fill="#000000" />
<rect x="126" y="46" width="1" height="1" fill="#000000" />
<rect x="127" y="46" width="1" height="1" fill="#000000" />
<rect x="64" y="47" width="1" height="1" fill="#000000" />
<rect x="65" y="47" width="1" height="1" fill="#000000" />
<rect x="66" y="47" width="1" height="1" fill="#000000" />
<rect x="81" y="47" width="1" height="1" fill="#000000" />
<rect x="82" y="47" width="1" height="1" fill="#000000" />
<rect x="84" y="47" width="1" height="1" fill="#000000" />
<rect x="85" y="47" width="1" height="1" fill="#000000" />
<rect x="86" y="47" width="1" height="1" fill="#000000" />
<rect x="87" y="47" width="1" height="1" fill="#000000" />
<rect x="90" y="47" width="1" height="1" fill="#000000" />
<rect x="91" y="47" width="1" height="1" fill="#000000" />
<rect x="93" y="47" width="1" height="1" fill="#000000" />
<rect x="94" y="47" width="1" height="1" fill="#000000" />
<rect x="95" y="47" width="1" height="1" fill="#000000" />
<rect x="96" y="47" width="1" height="1" fill="#000000" />
<rect x="105" y="47" width="1" height="1" fill="#000000" />
<rect x="106" y="47" width="1" height="1" fill="#000000" />
<rect x="107" y="47" width="1" height="1" fill="#000000" />
<rect x="108" y="47" width="1" height="1" fill="#000000" />
<rect x="109" y="47" width="1" height="1" fill="#000000" />
<rect x="125" y="47" width="1" height="1" fill="#000000" />
<rect x="126" y="47" width="1" height="1" fill="#000000" />
<rect x="127" y="47" width="1" height="1" fill="#000000" />
<rect x="64" y="48" width="1" height="1" fill="#000000" />
<rect x="65" y="48" width="1" height="1" fill="#000000" />
<rect x="66" y="48" width="1" height="1" fill="#000000" />
<rect x="81" y="48" width="1" height="1" fill="#000000" />
<rect x="82" y="48" width="1" height="1" fill="#000000" />
<rect x="84" y="48" width="1" height="1" fill="#000000" />
<rect x="85" y="48" width="1" height="1" fill="#000000" />
<rect x="86" y="48" width="1" height="1" fill="#000000" />
<rect x="87" y="48" width="1" height="1" fill="#000000" />
<rect x="88" y="48" width="1" height="1" fill="#555555" />
<rect x="90" y="48" width="1" height="1" fill="#000000" />
<rect x="91" y="48" width="1" height="1" fill="#000000" />
<rect x="93" y="48" width="1" height="1" fill="#000000" />
<rect x="94" y="48" width="1" height="1" fill="#000000" />
<rect x="95" y="48" width="1" height="1" fill="#000000" />
<rect x="96" y="48" width="1" height="1" fill="#000000" />
<rect x="105" y="48" width="1" height="1" fill="#000000" />
<rect x="106" y="48" width="1" height="1" fill="#000000" />
<rect x="107" y="48" width="1" height="1" fill="#000000" />
<rect x="108" y="48" width="1" height="1" fill="#000000" />
<rect x="109" y="48" width="1" height="1" fill="#000000" />
<rect x="125" y="48" width="1" height="1" fill="#000000" />
<rect x="126" y="48" width="1" height="1" fill="#000000" />
<rect x="127" y="48" width="1" height="1" fill="#000000" />
<rect x="64" y="49" width="1" height="1" fill="#000000" />
<rect x="65" y="49" width="1" height="1" fill="#000000" />
<rect x="66" y="49" width="1" height="1" fill="#000000" />
<rect x="81" y="49" width="1" height="1" fill="#000000" />
<rect x="82" y="49" width="1" height="1" fill="#000000" />
<rect x="84" y="49" width="1" height="1" fill="#000000" />
<rect x="85" y="49" width="1" height="1" fill="#000000" />
<rect x="86" y="49" width="1" height="1" fill="#000000" />
<rect x="87" y="49" width="1" height="1" fill="#000000" />
<rect x="88" y="49" width="1" height="1" fill="#000000" />
<rect x="89" y="49" width="1" height="1" fill="#555555" />
<rect x="90" y="49" width="1" height="1" fill="#000000" />
<rect x="93" y="49" width="1" height="1" fill="#000000" />
<rect x="94" y="49" width="1" height="1" fill="#000000" />
<rect x="95" y="49" width="1" height="1" fill="#000000" />
<rect x="96" y="49" width="1" height="1" fill="#000000" />
<rect x="102" y="49" width="1" height="1" fill="#555555" />
<rect x="103" y="49" width="1" height="1" fill="#555555" />
<rect x="104" y="49" width="1" height="1" fill="#555555" />
<rect x="105" y="49" width="1" height="1" fill="#000000" />
<rect x="106" y="49" width="1" height="1" fill="#000000" />
<rect x="107" y="49" width="1" height="1" fill="#000000" />
<rect x="108" y="49" width="1" height="1" fill="#000000" />
<rect x="109" y="49" width="1" height="1" fill="#000000" />
<rect x="110" y="49" width="1" height="1" fill="#555555" />
<rect x="111" y="49" width="1" height="1" fill="#555555" />
<rect x="112" y="49" width="1" height="1" fill="#555555" />
<rect x="125" y="49" width="1" height="1" fill="#000000" />
<rect x="126" y="49" width="1" height="1" fill="#000000" />
<rect x="127" y="49" width="1" height="1" fill="#000000" />
<rect x="64" y="50" width="1" height="1" fill="#000000" />
<rect x="65" y="50" width="1" height="1" fill="#000000" />
<rect x="66" y="50" width="1" height="1" fill="#000000" />
<rect x="81" y="50" width="1" height="1" fill="#000000" />
<rect x="82" y="50" width="1" height="1" fill="#000000" />
<rect x="85" y="50" width="1" height="1" fill="#000000" />
<rect x="86" y="50" width="1" height="1" fill="#000000" />
<rect x="87" y="50" width="1" height="1" fill="#000000" />
<rect x="88" y="50" width="1" height="1" fill="#000000" />
<rect x="89" y="50" width="1" height="1" fill="#000000" />
<rect x="90" y="50" width="1" height="1" fill="#000000" />
<rect x="93" y="50" width="1" height="1" fill="#000000" />
<rect x="94" y="50" width="1" height="1" fill="#000000" />
<rect x="95" y="50" width="1" height="1" fill="#000000" />
<rect x="96" y="50" width="1" height="1" fill="#000000" />
<rect x="102" y="50" width="1" height="1" fill="#000000" />
<rect x="103" y="50" width="1" height="1" fill="#000000" />
<rect x="104" y="50" width="1" height="1" fill="#000000" />
<rect x="105" y="50" width="1" height="1" fill="#000000" />
<rect x="106" y="50" width="1" height="1" fill="#000000" />
<rect x="107" y="50" width="1" height="1" fill="#000000" />
<rect x="108" y="50" width="1" height="1" fill="#000000" />
<rect x="109" y="50" width="1" height="1" fill="#000000" />
<rect x="110" y="50" width="1" height="1" fill="#000000" />
<rect x="111" y="50" width="1" height="1" fill="#000000" />
<rect x="112" y="50" width="1" height="1" fill="#000000" />
<rect x="125" y="50" width="1" height="1" fill="#000000" />
<rect x="126" y="50" width="1" height="1" fill="#000000" />
<rect x="127" y="50" width="1" height="1" fill="#000000" />
<rect x="64" y="51" width="1" height="1" fill="#000000" />
<rect x="65" y="51" width="1" height="1" fill="#000000" />
<rect x="66" y="51" width="1" height="1" fill="#000000" />
<rect x="81" y="51" width="1" height="1" fill="#000000" />
<rect x="82" y="51" width="1" height="1" fill="#000000" />
<rect x="85" y="51" width="1" height="1" fill="#000000" />
<rect x="86" y="51" width="1" height="1" fill="#000000" />
<rect x="87" y="51" width="1" height="1" fill="#000000" />
<rect x="88" y="51" width="1" height="1" fill="#000000" />
<rect x="89" y="51" width="1" height="1" fill="#000000" />
<rect x="90" y="51" width="1" height="1" fill="#000000" />
<rect x="93" y="51" width="1" height="1" fill="#000000" />
<rect x="94" y="51" width="1" height="1" fill="#000000" />
<rect x="95" y="51" width="1" height="1" fill="#000000" />
<rect x="96" y="51" width="1" height="1" fill="#000000" />
<rect x="103" y="51" width="1" height="1" fill="#000000" />
<rect x="104" y="51" width="1" height="1" fill="#000000" />
<rect x="105" y="51" width="1" height="1" fill="#000000" />
<rect x="106" y="51" width="1" height="1" fill="#000000" />
<rect x="107" y="51" width="1" height="1" fill="#000000" />
<rect x="108" y="51" width="1" height="1" fill="#000000" />
<rect x="109" y="51" width="1" height="1" fill="#000000" />
<rect x="110" y="51" width="1" height="1" fill="#000000" />
<rect x="111" y="51" width="1" height="1" fill="#000000" />
<rect x="125" y="51" width="1" height="1" fill="#000000" />
<rect x="126" y="51" width="1" height="1" fill="#000000" />
<rect x="127" y="51" width="1" height="1" fill="#000000" />
<rect x="64" y="52" width="1" height="1" fill="#000000" />
<rect x="65" y="52" width="1" height="1" fill="#000000" />
<rect x="66" y="52" width="1" height="1" fill="#000000" />
<rect x="81" y="52" width="1" height="1" fill="#000000" />
<rect x="82" y="52" width="1" height="1" fill="#555555" />
<rect x="86" y="52" width="1" height="1" fill="#000000" />
<rect x="87" y="52" width="1" height="1" fill="#000000" />
<rect x="88" y="52" width="1" height="1" fill="#000000" />
<rect x="89" y="52" width="1" height="1" fill="#000000" />
<rect x="93" y="52" width="1" height="1" fill="#000000" />
<rect x="94" y="52" width="1" height="1" fill="#000000" />
<rect x="95" y="52" width="1" height="1" fill="#000000" />
<rect x="96" y="52" width="1" height="1" fill="#000000" />
<rect x="104" y="52" width="1" height="1" fill="#000000" />
<rect x="105" y="52" width="1" height="1" fill="#000000" />
<rect x="106" y="52" width="1" height="1" fill="#000000" />
<rect x="107" y="52" width="1" height="1" fill="#000000" />
<rect x="108" y="52" width="1" height="1" fill="#000000" />
<rect x="109" y="52" width="1" height="1" fill="#000000" />
<rect x="110" y="52" width="1" height="1" fill="#000000" />
<rect x="125" y="52" width="1" height="1" fill="#000000" />
<rect x="126" y="52" width="1" height="1" fill="#000000" />
<rect x="127" y="52" width="1" height="1" fill="#000000" />
<rect x="64" y="53" width="1" height="1" fill="#000000" />
<rect x="65" y="53" width="1" height="1" fill="#000000" />
<rect x="66" y="53" width="1" height="1" fill="#000000" />
<rect x="79" y="53" width="1" height="1" fill="#555555" />
<rect x="80" y="53" width="1" height="1" fill="#555555" />
<rect x="81" y="53" width="1" height="1" fill="#000000" />
<rect x="82" y="53" width="1" height="1" fill="#000000" />
<rect x="83" y="53" width="1" height="1" fill="#555555" />
<rect x="86" y="53" width="1" height="1" fill="#000000" />
<rect x="87" y="53" width="1" height="1" fill="#000000" />
<rect x="88" y="53" width="1" height="1" fill="#000000" />
<rect x="89" y="53" width="1" height="1" fill="#000000" />
<rect x="92" y="53" width="1" height="1" fill="#555555" />
<rect x="93" y="53" width="1" height="1" fill="#000000" />
<rect x="94" y="53" width="1" height="1" fill="#000000" />
<rect x="95" y="53" width="1" height="1" fill="#000000" />
<rect x="96" y="53" width="1" height="1" fill="#000000" />
<rect x="97" y="53" width="1" height="1" fill="#555555" />
<rect x="98" y="53" width="1" height="1" fill="#555555" />
<rect x="105" y="53" width="1" height="1" fill="#000000" />
<rect x="106" y="53" width="1" height="1" fill="#000000" />
<rect x="107" y="53" width="1" height="1" fill="#000000" />
<rect x="108" y="53" width="1" height="1" fill="#000000" />
<rect x="109" y="53" width="1" height="1" fill="#000000" />
<rect x="125" y="53" width="1" height="1" fill="#000000" />
<rect x="126" y="53" width="1" height="1" fill="#000000" />
<rect x="127" y="53" width="1" height="1" fill="#000000" />
<rect x="64" y="54" width="1" height="1" fill="#000000" />
<rect x="65" y="54" width="1" height="1" fill="#000000" />
<rect x="66" y="54" width="1" height="1" fill="#000000" />
<rect x="79" y="54" width="1" height="1" fill="#000000" />
<rect x="80" y="54" width="1" height="1" fill="#000000" />
<rect x="81" y="54" width="1" height="1" fill="#000000" />
<rect x="82" y="54" width="1" height="1" fill="#000000" />
<rect x="83" y="54" width="1" height="1" fill="#000000" />
<rect x="87" y="54" width="1" height="1" fill="#000000" />
<rect x="88" y="54" width="1" height="1" fill="#000000" />
<rect x="92" y="54" width="1" height="1" fill="#000000" />
<rect x="93" y="54" width="1" height="1" fill="#000000" />
<rect x="94" y="54" width="1" height="1" fill="#000000" />
<rect x="95" y="54" width="1" height="1" fill="#000000" />
<rect x="96" y="54" width="1" height="1" fill="#000000" />
<rect x="97" y="54" width="1" height="1" fill="#000000" />
<rect x="98" y="54" width="1" height="1" fill="#000000" />
<rect x="106" y="54" width="1" height="1" fill="#000000" />
<rect x="107" y="54" width="1" height="1" fill="#000000" />
<rect x="108" y="54" width="1" height="1" fill="#000000" />
<rect x="125" y="54" width="1" height="1" fill="#000000" />
<rect x="126" y="54" width="1" height="1" fill="#000000" />
<rect x="127" y="54" width="1" height="1" fill="#000000" />
<rect x="64" y="55" width="1" height="1" fill="#000000" />
<rect x="65" y="55" width="1" height="1" fill="#000000" />
<rect x="66" y="55" width="1" height="1" fill="#000000" />
<rect x="79" y="55" width="1" height="1" fill="#000000" />
<rect x="80" y="55" width="1" height="1" fill="#000000" />
<rect x="81" y="55" width="1" height="1" fill="#000000" />
<rect x="82" y="55" width="1" height="1" fill="#000000" />
<rect x="83" y="55" width="1" height="1" fill="#000000" />
<rect x="87" y="55" width="1" height="1" fill="#000000" />
<rect x="88" y="55" width="1" height="1" fill="#000000" />
<rect x="92" y="55" width="1" height="1" fill="#000000" />
<rect x="93" y="55" width="1" height="1" fill="#000000" />
<rect x="94" y="55" width="1" height="1" fill="#000000" />
<rect x="95" y="55" width="1" height="1" fill="#000000" />
<rect x="96" y="55" width="1" height="1" fill="#000000" />
<rect x="97" y="55" width="1" height="1" fill="#000000" />
<rect x="98" y="55" width="1" height="1" fill="#000000" />
<rect x="107" y="55" width="1" height="1" fill="#000000" />
<rect x="125" y="55" width="1" height="1" fill="#000000" />
<rect x="126" y="55" width="1" height="1" fill="#000000" />
<rect x="127" y="55" width="1" height="1" fill="#000000" />
<rect x="64" y="56" width="1" height="1" fill="#000000" />
<rect x="65" y="56" width="1" height="1" fill="#000000" />
<rect x="66" y="56" width="1" height="1" fill="#000000" />
<rect x="125" y="56" width="1" height="1" fill="#000000" />
<rect x="126" y="56" width="1" height="1" fill="#000000" />
<rect x="127" y="56" width="1" height="1" fill="#000000" />
<rect x="64" y="57" width="1" height="1" fill="#000000" />
<rect x="65" y="57" width="1" height="1" fill="#000000" />
<rect x="66" y="57" width="1" height="1" fill="#000000" />
<rect x="125" y="57" width="1" height="1" fill="#000000" />
<rect x="126" y="57" width="1" height="1" fill="#000000" />
<rect x="127" y="57" width="1" height="1" fill="#000000" />
<rect x="64" y="58" width="1" height="1" fill="#000000" />
<rect x="65" y="58" width="1" height="1" fill="#000000" />
<rect x="66" y="58" width="1" height="1" fill="#000000" />
<rect x="67" y="58" width="1" height="1" fill="#555555" />
<rect x="68" y="58" width="1" height="1" fill="#555555" />
<rect x="69" y="58" width="1" height="1" fill="#555555" />
<rect x="70" y="58" width="1" height="1" fill="#555555" />
<rect x="71" y="58" width="1" height="1" fill="#555555" />
<rect x="72" y="58" width="1" height="1" fill="#555555" />
<rect x="73" y="58" width="1" height="1" fill="#555555" />
<rect x="74" y="58" width="1" height="1" fill="#555555" />
<rect x="75" y="58" width="1" height="1" fill="#555555" />
<rect x="76" y="58" width="1" height="1" fill="#555555" />
<rect x="77" y="58" width="1" height="1" fill="#555555" />
<rect x="78" y="58" width="1" height="1" fill="#555555" />
<rect x="79" y="58" width="1" height="1" fill="#555555" />
<rect x="80" y="58" width="1" height="1" fill="#555555" />
<rect x="81" y="58" width="1" height="1" fill="#555555" />
<rect x="82" y="58" width="1" height="1" fill="#555555" />
<rect x="83" y="58" width="1" height="1" fill="#555555" />
<rect x="84" y="58" width="1" height="1" fill="#555555" />
<rect x="85" y="58" width="1" height="1" fill="#555555" />
<rect x="86" y="58" width="1" height="1" fill="#555555" />
<rect x="87" y="58" width="1" height="1" fill="#555555" />
<rect x="88" y="58" width="1" height="1" fill="#555555" />
<rect x="89" y="58" width="1" height="1" fill="#555555" />
<rect x="90" y="58" width="1" height="1" fill="#555555" />
<rect x="91" y="58" width="1" height="1" fill="#555555" />
<rect x="92" y="58" width="1" height="1" fill="#555555" />
<rect x="93" y="58" width="1" height="1" fill="#555555" />
<rect x="94" y="58" width="1" height="1" fill="#555555" />
<rect x="95" y="58" width="1" height="1" fill="#555555" />
<rect x="96" y="58" width="1" height="1" fill="#555555" />
<rect x="97" y="58" width="1" height="1" fill="#555555" />
<rect x="98" y="58" width="1" height="1" fill="#555555" />
<rect x="99" y="58" width="1" height="1" fill="#555555" />
<rect x="100" y="58" width="1" height="1" fill="#555555" />
<rect x="101" y="58" width="1" height="1" fill="#555555" />
<rect x="102" y="58" width="1" height="1" fill="#555555" />
<rect x="103" y="58" width="1" height="1" fill="#555555" />
<rect x="104" y="58" width="1" height="1" fill="#555555" />
<rect x="105" y="58" width="1" height="1" fill="#555555" />
<rect x="106" y="58" width="1" height="1" fill="#555555" />
<rect x="107" y="58" width="1" height="1" fill="#555555" />
<rect x="108" y="58" width="1" height="1" fill="#555555" />
<rect x="109" y="58" width="1" height="1" fill="#555555" />
<rect x="110" y="58" width="1" height="1" fill="#555555" />
<rect x="111" y="58" width="1" height="1" fill="#555555" />
<rect x="112" y="58" width="1" height="1" fill="#555555" />
<rect x="113" y="58" width="1" height="1" fill="#555555" />
<rect x="114" y="58" width="1" height="1" fill="#555555" />
<rect x="115" y="58" width="1" height="1" fill="#555555" />
<rect x="116" y="58" width="1" height="1" fill="#555555" />
<rect x="117" y="58" width="1" height="1" fill="#555555" />
<rect x="118" y="58" width="1" height="1" fill="#555555" />
<rect x="119" y="58" width="1" height="1" fill="#555555" />
<rect x="120" y="58" width="1" height="1" fill="#555555" />
<rect x="121" y="58" width="1" height="1" fill="#555555" />
<rect x="122" y="58" width="1" height="1" fill="#555555" />
<rect x="123" y="58" width="1" height="1" fill="#555555" />
<rect x="124" y="58" width="1" height="1" fill="#555555" />
<rect x="125" y="58" width="1" height="1" fill="#000000" />
<rect x="126" y="58" width="1" height="1" fill="#000000" />
<rect x="127" y="58" width="1" height="1" fill="#000000" />
<rect x="64" y="59" width="1" height="1" fill="#000000" />
<rect x="65" y="59" width="1" height="1" fill="#000000" />
<rect x="66" y="59" width="1" height="1" fill="#000000" />
<rect x="67" y="59" width="1" height="1" fill="#000000" />
<rect x="68" y="59" width="1" height="1" fill="#000000" />
<rect x="69" y="59" width="1" height="1" fill="#000000" />
<rect x="70" y="59" width="1" height="1" fill="#000000" />
<rect x="71" y="59" width="1" height="1" fill="#000000" />
<rect x="72" y="59" width="1" height="1" fill="#000000" />
<rect x="73" y="59" width="1" height="1" fill="#000000" />
<rect x="74" y="59" width="1" height="1" fill="#000000" />
<rect x="75" y="59" width="1" height="1" fill="#000000" />
<rect x="76" y="59" width="1" height="1" fill="#000000" />
<rect x="77" y="59" width="1" height="1" fill="#000000" />
<rect x="78" y="59" width="1" height="1" fill="#000000" />
<rect x="79" y="59" width="1" height="1" fill="#000000" />
<rect x="80" y="59" width="1" height="1" fill="#000000" />
<rect x="81" y="59" width="1" height="1" fill="#000000" />
<rect x="82" y="59" width="1" height="1" fill="#000000" />
<rect x="83" y="59" width="1" height="1" fill="#000000" />
<rect x="84" y="59" width="1" height="1" fill="#000000" />
<rect x="85" y="59" width="1" height="1" fill="#000000" />
<rect x="86" y="59" width="1" height="1" fill="#000000" />
<rect x="87" y="59" width="1" height="1" fill="#000000" />
<rect x="88" y="59" width="1" height="1" fill="#000000" />
<rect x="89" y="59" width="1" height="1" fill="#000000" />
<rect x="90" y="59" width="1" height="1" fill="#000000" />
<rect x="91" y="59" width="1" height="1" fill="#000000" />
<rect x="92" y="59" width="1" height="1" fill="#000000" />
<rect x="93" y="59" width="1" height="1" fill="#000000" />
<rect x="94" y="59" width="1" height="1" fill="#000000" />
<rect x="95" y="59" width="1" height="1" fill="#000000" />
<rect x="96" y="59" width="1" height="1" fill="#000000" />
<rect x="97" y="59" width="1" height="1" fill="#000000" />
<rect x="98" y="59" width="1" height="1" fill="#000000" />
<rect x="99" y="59" width="1" height="1" fill="#000000" />
<rect x="100" y="59" width="1" height="1" fill="#000000" />
<rect x="101" y="59" width="1" height="1" fill="#000000" />
<rect x="102" y="59" width="1" height="1" fill="#000000" />
<rect x="103" y="59" width="1" height="1" fill="#000000" />
<rect x="104" y="59" width="1" height="1" fill="#000000" />
<rect x="105" y="59" width="1" height="1" fill="#000000" />
<rect x="106" y="59" width="1" height="1" fill="#000000" />
<rect x="107" y="59" width="1" height="1" fill="#000000" />
<rect x="108" y="59" width="1" height="1" fill="#000000" />
<rect x="109" y="59" width="1" height="1" fill="#000000" />
<rect x="110" y="59" width="1" height="1" fill="#000000" />
<rect x="111" y="59" width="1" height="1" fill="#000000" />
<rect x="112" y="59" width="1" height="1" fill="#000000" />
<rect x="113" y="59" width="1" height="1" fill="#000000" />
<rect x="114" y="59" width="1" height="1" fill="#000000" />
<rect x="115" y="59" width="1" height="1" fill="#000000" />
<rect x="116" y="59" width="1" height="1" fill="#000000" />
<rect x="117" y="59" width="1" height="1" fill="#000000" />
<rect x="118" y="59" width="1" height="1" fill="#000000" />
<rect x="119" y="59" width="1" height="1" fill="#000000" />
<rect x="120" y="59" width="1" height="1" fill="#000000" />
<rect x="121" y="59" width="1" height="1" fill="#000000" />
<rect x="122" y="59" width="1" height="1" fill="#000000" />
<rect x="123" y="59" width="1" height="1" fill="#000000" />
<rect x="124" y="59" width="1" height="1" fill="#000000" />
<rect x="125" y="59" width="1" height="1" fill="#000000" />
<rect x="126" y="59" width="1" height="1" fill="#000000" />
<rect x="127" y="59" width="1" height="1" fill="#000000" />
<rect x="64" y="60" width="1" height="1" fill="#000000" />
<rect x="65" y="60" width="1" height="1" fill="#000000" />
<rect x="66" y="60" width="1" height="1" fill="#000000" />
<rect x="67" y="60" width="1" height="1" fill="#000000" />
<rect x="68" y="60" width="1" height="1" fill="#000000" />
<rect x="69" y="60" width="1" height="1" fill="#000000" />
<rect x="70" y="60" width="1" height="1" fill="#000000" />
<rect x="71" y="60" width="1" height="1" fill="#000000" />
<rect x="72" y="60" width="1" height="1" fill="#000000" />
<rect x="73" y="60" width="1" height="1" fill="#000000" />
<rect x="74" y="60" width="1" height="1" fill="#000000" />
<rect x="75" y="60" width="1" height="1" fill="#000000" />
<rect x="76" y="60" width="1" height="1" fill="#000000" />
<rect x="77" y="60" width="1" height="1" fill="#000000" />
<rect x="78" y="60" width="1" height="1" fill="#000000" />
<rect x="79" y="60" width="1" height="1" fill="#000000" />
<rect x="80" y="60" width="1" height="1" fill="#000000" />
<rect x="81" y="60" width="1" height="1" fill="#000000" />
<rect x="82" y="60" width="1" height="1" fill="#000000" />
<rect x="83" y="60" width="1" height="1" fill="#000000" />
<rect x="84" y="60" width="1" height="1" fill="#000000" />
<rect x="85" y="60" width="1" height="1" fill="#000000" />
<rect x="86" y="60" width="1" height="1" fill="#000000" />
<rect x="87" y="60" width="1" height="1" fill="#000000" />
<rect x="88" y="60" width="1" height="1" fill="#000000" />
<rect x="89" y="60" width="1" height="1" fill="#000000" />
<rect x="90" y="60" width="1" height="1" fill="#000000" />
<rect x="91" y="60" width="1" height="1" fill="#000000" />
<rect x="92" y="60" width="1" height="1" fill="#000000" />
<rect x="93" y="60" width="1" height="1" fill="#000000" />
<rect x="94" y="60" width="1" height="1" fill="#000000" />
<rect x="95" y="60" width="1" height="1" fill="#000000" />
<rect x="96" y="60" width="1" height="1" fill="#000000" />
<rect x="97" y="60" width="1" height="1" fill="#000000" />
<rect x="98" y="60" width="1" height="1" fill="#000000" />
<rect x="99" y="60" width="1" height="1" fill="#000000" />
<rect x="100" y="60" width="1" height="1" fill="#000000" />
<rect x="101" y="60" width="1" height="1" fill="#000000" />
<rect x="102" y="60" width="1" height="1" fill="#000000" />
<rect x="103" y="60" width="1" height="1" fill="#000000" />
<rect x="104" y="60" width="1" height="1" fill="#000000" />
<rect x="105" y="60" width="1" height="1" fill="#000000" />
<rect x="106" y="60" width="1" height="1" fill="#000000" />
<rect x="107" y="60" width="1" height="1" fill="#000000" />
<rect x="108" y="60" width="1" height="1" fill="#000000" />
<rect x="109" y="60" width="1" height="1" fill="#000000" />
<rect x="110" y="60" width="1" height="1" fill="#000000" />
<rect x="111" y="60" width="1" height="1" fill="#000000" />
<rect x="112" y="60" width="1" height="1" fill="#000000" />
<rect x="113" y="60" width="1" height="1" fill="#000000" />
<rect x="114" y="60" width="1" height="1" fill="#000000" />
<rect x="115" y="60" width="1" height="1" fill="#000000" />
<rect x="116" y="60" width="1" height="1" fill="#000000" />
<rect x="117" y="60" width="1" height="1" fill="#000000" />
<rect x="118" y="60" width="1" height="1" fill="#000000" />
<rect x="119" y="60" width="1" height="1" fill="#000000" />
<rect x="120" y="60" width="1" height="1" fill="#000000" />
<rect x="121" y="60" width="1" height="1" fill="#000000" />
<rect x="122" y="60" width="1" height="1" fill="#000000" />
<rect x="123" y="60" width="1" height="1" fill="#000000" />
<rect x="124" y="60" width="1" height="1" fill="#000000" />
<rect x="125" y="60" width="1" height="1" fill="#000000" />
<rect x="126" y="60" width="1" height="1" fill="#000000" />
<rect x="127" y="60" width="1" height="1" fill="#000000" />
</svg>